<svg width="209" height="209" viewBox="0 0 209 209" fill="none" xmlns="http://www.w3.org/2000/svg">
<g clip-path="url(#clip0)">
<path d="M68.0935 59.4049L104.5 109.514L140.907 59.4049C147.431 50.424 147.431 38.2633 140.907 29.2824L125.579 8.18487C122.461 3.89385 116.207 3.50157 112.578 7.36969L108.391 11.8318C106.283 14.0781 102.717 14.0777 100.609 11.8318L96.4227 7.36969C92.7934 3.50157 86.5397 3.89385 83.4219 8.18487L68.0935 29.2824C61.5688 38.2633 61.5688 50.424 68.0935 59.4049Z" fill="#F0BDD5"/>
<path opacity="0.3" d="M90.763 78.5149L104.5 109.514L118.237 78.5149C120.467 73.4842 120.562 67.7644 118.5 62.6623L112.884 48.7626C112.088 46.791 109.415 46.5049 108.219 48.2626L106.547 50.72C105.564 52.163 103.437 52.163 102.455 50.72L100.783 48.2626C99.5871 46.5045 96.9138 46.791 96.1174 48.7626L90.5013 62.6627C88.4387 67.7644 88.5338 73.4842 90.763 78.5149Z" fill="white"/>
<path d="M45.5933 128.654L104.5 109.514L68.0935 59.4049C61.5683 50.424 50.0027 46.6661 39.4454 50.0967L14.6439 58.155C9.59929 59.7939 7.29376 65.6206 9.85074 70.2676L12.8004 75.6285C14.2854 78.3271 13.1833 81.7189 10.3957 83.0292L4.85842 85.6319C0.0583727 87.8884 -1.50137 93.9572 1.61648 98.2486L16.9449 119.346C23.47 128.327 35.0356 132.084 45.5933 128.654Z" fill="#F0BDD5"/>
<path opacity="0.2" d="M45.5933 128.654L104.5 109.514L68.0935 59.4049C61.5683 50.424 50.0027 46.6661 39.4454 50.0967L14.6439 58.155C9.59929 59.7939 7.29376 65.6206 9.85074 70.2676L12.8004 75.6285C14.2854 78.3271 13.1833 81.7189 10.3957 83.0292L4.85842 85.6319C0.0583727 87.8884 -1.50137 93.9572 1.61648 98.2486L16.9449 119.346C23.47 128.327 35.0356 132.084 45.5933 128.654Z" fill="white"/>
<path opacity="0.3" d="M70.7733 113L104.5 109.514L79.2631 86.87C75.1676 83.1949 69.7569 81.3376 64.2678 81.7213L49.3129 82.7671C47.1919 82.9153 46.0934 85.369 47.3956 87.05L49.2157 89.3996C50.2848 90.7797 49.6272 92.8028 47.9515 93.291L45.0978 94.1221C43.0564 94.7164 42.5028 97.3473 44.1316 98.714L55.6155 108.35C59.8306 111.888 65.2997 113.566 70.7733 113Z" fill="white"/>
<path d="M104.5 171.453V109.514L45.5933 128.654C35.0356 132.085 27.888 141.923 27.888 153.024L27.888 179.102C27.888 184.406 32.7166 188.399 37.9265 187.403L43.9365 186.254C46.9616 185.676 49.8468 187.772 50.2317 190.828L50.9963 196.899C51.6588 202.161 56.9487 205.52 61.9933 203.881L86.7948 195.822C97.3522 192.392 104.5 182.553 104.5 171.453Z" fill="#F0BDD5"/>
<path opacity="0.15" d="M104.5 171.453V109.514L45.5933 128.654C35.0356 132.085 27.888 141.923 27.888 153.024L27.888 179.102C27.888 184.406 32.7166 188.399 37.9265 187.403L43.9365 186.254C46.9616 185.676 49.8468 187.772 50.2317 190.828L50.9963 196.899C51.6588 202.161 56.9487 205.52 61.9933 203.881L86.7948 195.822C97.3522 192.392 104.5 182.553 104.5 171.453Z" fill="#E978A0"/>
<path opacity="0.3" d="M97.393 142.668L104.5 109.514L75.1656 126.519C70.4051 129.278 66.9664 133.85 65.6353 139.189L62.0088 153.736C61.4945 155.799 63.4885 157.602 65.4895 156.883L68.2869 155.878C69.9295 155.288 71.6509 156.538 71.597 158.283L71.5056 161.254C71.4399 163.379 73.7711 164.719 75.5742 163.592L88.288 155.648C92.9542 152.731 96.2394 148.048 97.393 142.668Z" fill="white"/>
<path d="M163.407 128.654L104.5 109.514L140.907 59.4049C147.431 50.424 158.997 46.6661 169.555 50.0967L194.356 58.155C199.401 59.7939 201.706 65.6206 199.149 70.2676L196.2 75.6285C194.715 78.3271 195.817 81.7189 198.604 83.0292L204.142 85.6319C208.942 87.8884 210.501 93.9572 207.384 98.2486L192.055 119.346C185.53 128.327 173.965 132.084 163.407 128.654Z" fill="#F0BDD5"/>
<path opacity="0.15" d="M163.407 128.654L104.5 109.514L140.907 59.4049C147.431 50.424 158.997 46.6661 169.555 50.0967L194.356 58.155C199.401 59.7939 201.706 65.6206 199.149 70.2676L196.2 75.6285C194.715 78.3271 195.817 81.7189 198.604 83.0292L204.142 85.6319C208.942 87.8884 210.501 93.9572 207.384 98.2486L192.055 119.346C185.53 128.327 173.965 132.084 163.407 128.654Z" fill="#E978A0"/>
<path opacity="0.3" d="M138.227 113L104.5 109.514L129.737 86.87C133.833 83.1949 139.244 81.3376 144.733 81.7213L159.688 82.7671C161.809 82.9153 162.907 85.369 161.605 87.05L159.785 89.3996C158.716 90.7797 159.373 92.8028 161.049 93.291L163.903 94.1221C165.944 94.7164 166.498 97.3473 164.869 98.714L153.385 108.35C149.17 111.888 143.701 113.566 138.227 113Z" fill="white"/>
<path d="M104.5 171.453V109.514L163.407 128.654C173.964 132.085 181.112 141.923 181.112 153.024V179.102C181.112 184.406 176.284 188.399 171.074 187.403L165.064 186.254C162.039 185.676 159.154 187.772 158.769 190.828L158.005 196.899C157.342 202.161 152.052 205.52 147.008 203.881L122.206 195.822C111.648 192.392 104.5 182.553 104.5 171.453Z" fill="#F0BDD5"/>
<path opacity="0.3" d="M111.607 142.668L104.5 109.514L133.835 126.519C138.596 129.278 142.034 133.85 143.365 139.189L146.992 153.736C147.506 155.799 145.512 157.602 143.511 156.883L140.713 155.878C139.071 155.288 137.349 156.538 137.403 158.283L137.495 161.254C137.56 163.379 135.229 164.719 133.426 163.592L120.712 155.648C116.046 152.731 112.761 148.048 111.607 142.668Z" fill="white"/>
<g opacity="0.05">
<path opacity="0.05" d="M104.5 38.0641C102.809 38.0641 101.439 36.6933 101.439 35.0026V25.4984C101.439 23.8076 102.809 22.4369 104.5 22.4369C106.191 22.4369 107.562 23.8076 107.562 25.4984V35.0026C107.562 36.6937 106.191 38.0641 104.5 38.0641Z" fill="black"/>
<path opacity="0.05" d="M33.6363 89.5511C33.3228 89.5511 33.004 89.5025 32.6897 89.4004L23.6504 86.4634C22.0425 85.9409 21.162 84.2138 21.6849 82.6059C22.2074 80.9976 23.9345 80.1171 25.5424 80.6404L34.5817 83.5774C36.1896 84.0999 37.0701 85.827 36.5472 87.4349C36.1267 88.7285 34.9266 89.5511 33.6363 89.5511Z" fill="black"/>
<path opacity="0.05" d="M55.1147 180.546C54.4909 180.546 53.8611 180.356 53.3178 179.961C51.9499 178.967 51.6466 177.053 52.6405 175.685L58.2272 167.996C59.2208 166.627 61.1352 166.324 62.5035 167.318C63.8714 168.312 64.1747 170.227 63.1807 171.595L57.5941 179.284C56.9948 180.108 56.0613 180.546 55.1147 180.546Z" fill="black"/>
<path opacity="0.05" d="M153.886 180.546C152.939 180.546 152.006 180.108 151.406 179.284L145.82 171.595C144.826 170.227 145.129 168.312 146.497 167.319C147.865 166.325 149.78 166.628 150.773 167.996L156.36 175.685C157.354 177.052 157.051 178.967 155.683 179.961C155.139 180.356 154.51 180.546 153.886 180.546Z" fill="black"/>
<path opacity="0.05" d="M175.364 89.551C174.073 89.551 172.873 88.7285 172.453 87.4345C171.931 85.8266 172.811 84.0995 174.419 83.577L183.458 80.64C185.065 80.1167 186.793 80.9971 187.315 82.6055C187.838 84.2134 186.957 85.9405 185.35 86.463L176.31 89.4C175.996 89.5029 175.678 89.551 175.364 89.551Z" fill="black"/>
</g>
</g>
<defs>
<clipPath id="clip0">
<rect width="209" height="209" fill="white"/>
</clipPath>
</defs>
</svg>
